<svg width="390" height="200" viewBox="0 0 390 200" fill="none" xmlns="http://www.w3.org/2000/svg">
<rect width="390" height="200" fill="#AAAAAA"/>
<path d="M108.217 115.04C106.483 115.04 105.243 114.547 104.497 113.56C103.75 112.547 103.377 111.053 103.377 109.08C103.377 107.08 104.217 101.44 105.897 92.16L103.777 87.88C106.79 85.9333 109.537 84.96 112.017 84.96C114.07 84.96 115.097 86.2133 115.097 88.72C115.097 89.4667 114.537 92.7467 113.417 98.56L115.297 97C119.19 93.7467 121.137 90.9733 121.137 88.68C121.137 87.9867 121.03 87.36 120.817 86.8C122.79 85.6 124.657 85 126.417 85C129.03 85 130.337 86.3333 130.337 89C130.337 91.9867 127.683 95.0133 122.377 98.08C124.857 106.027 127.537 110.933 130.417 112.8C129.83 113.387 128.95 113.893 127.777 114.32C126.63 114.773 125.603 115 124.697 115C122.883 115 121.43 114.533 120.337 113.6C119.243 112.667 118.257 110.947 117.377 108.44L115.057 101.92L112.577 103.24C112.203 105.427 112.017 106.827 112.017 107.44C112.017 110.027 112.417 111.96 113.217 113.24C111.617 114.44 109.95 115.04 108.217 115.04ZM152.886 107.72L153.846 107.08C152.112 103.747 151.246 100.093 151.246 96.12C151.246 93.0267 152.006 90.4 153.526 88.24C155.072 86.08 157.246 85 160.046 85C161.512 85 162.752 85.2533 163.766 85.76C163.499 87.2533 163.019 89.8533 162.326 93.56C160.832 101.533 160.086 106.107 160.086 107.28C160.086 109.813 160.512 111.707 161.366 112.96C160.192 113.733 159.112 114.267 158.126 114.56C157.139 114.853 155.859 115 154.286 115C152.739 115 151.326 114.667 150.046 114C148.792 113.333 147.752 112.453 146.926 111.36C146.126 110.24 145.446 108.867 144.886 107.24C143.899 104.387 143.299 100.76 143.086 96.36H142.446C141.219 101.907 140.606 105.787 140.606 108C140.606 110.213 141.006 111.96 141.806 113.24C140.206 114.44 138.539 115.04 136.806 115.04C135.072 115.04 133.832 114.547 133.086 113.56C132.339 112.547 131.966 111.053 131.966 109.08C131.966 107.08 132.806 101.44 134.486 92.16L132.366 87.88C135.352 85.96 138.019 85 140.366 85C142.712 85 144.486 85.4133 145.686 86.24C146.886 87.04 147.726 88.2267 148.206 89.8C148.686 91.3733 149.032 93.04 149.246 94.8C149.486 96.5333 149.886 98.6267 150.446 101.08C151.032 103.533 151.846 105.747 152.886 107.72ZM194.37 113.24C192.77 114.44 191.197 115.04 189.65 115.04C188.104 115.04 186.877 114.64 185.97 113.84C185.064 113.04 184.61 111.84 184.61 110.24C184.61 109.787 184.624 109.44 184.65 109.2L184.25 109.08C181.61 113.027 178.064 115 173.61 115C169.317 115 167.17 112.733 167.17 108.2C167.17 106.68 167.384 104.667 167.81 102.16C168.237 99.6267 168.597 97.4933 168.89 95.76C169.21 94 169.424 92.8 169.53 92.16L167.41 87.88C169.09 86.92 170.544 86.2 171.77 85.72C173.024 85.24 174.277 85 175.53 85C176.784 85 177.624 85.3333 178.05 86C178.504 86.64 178.73 87.4133 178.73 88.32C178.73 89.2267 178.277 92.1333 177.37 97.04C176.49 101.947 176.05 104.813 176.05 105.64C176.05 107.747 176.77 108.8 178.21 108.8C179.277 108.8 180.49 108.12 181.85 106.76C183.21 105.4 184.317 103.533 185.17 101.16C184.61 99.5333 184.33 97.8533 184.33 96.12C184.33 93.0267 185.09 90.4 186.61 88.24C188.157 86.08 190.33 85 193.13 85C194.677 85 195.917 85.2533 196.85 85.76C196.61 87.2 196.144 89.8133 195.45 93.6C193.93 101.627 193.17 106.24 193.17 107.44C193.17 110.027 193.57 111.96 194.37 113.24ZM198.176 91.92C198.176 89.76 198.736 88.1333 199.856 87.04C200.976 85.9467 202.31 85.4 203.856 85.4C205.43 85.4 207.563 85.6667 210.256 86.2C212.95 86.7333 214.976 87.0133 216.336 87.04C218.603 86.6133 220.763 86.0933 222.816 85.48C223.03 86.1733 223.136 87.04 223.136 88.08C223.136 90.24 222.51 91.8667 221.256 92.96C220.03 94.0533 218.456 94.6 216.536 94.6C216.056 94.6 215.416 94.5733 214.616 94.52C213.15 102.227 212.416 106.533 212.416 107.44C212.416 110.027 212.816 111.96 213.616 113.24C212.016 114.44 210.35 115.04 208.616 115.04C206.883 115.04 205.643 114.547 204.896 113.56C204.15 112.547 203.776 111.053 203.776 109.08C203.776 107.08 204.55 101.773 206.096 93.16C203.083 93.56 200.55 94.0133 198.496 94.52C198.283 93.8533 198.176 92.9867 198.176 91.92ZM228.885 115.04C227.152 115.04 225.912 114.547 225.165 113.56C224.419 112.547 224.045 111.053 224.045 109.08C224.045 107.08 224.885 101.44 226.565 92.16L224.445 87.88C227.459 85.9333 230.205 84.96 232.685 84.96C234.739 84.96 235.765 86.2133 235.765 88.72C235.765 89.5467 235.245 92.6267 234.205 97.96C233.192 103.267 232.685 106.427 232.685 107.44C232.685 110.027 233.085 111.96 233.885 113.24C232.285 114.44 230.619 115.04 228.885 115.04ZM238.153 101.72C238.153 99.8533 238.553 97.96 239.353 96.04C240.153 94.0933 241.286 92.2933 242.753 90.64C244.22 88.9867 246.126 87.64 248.473 86.6C250.846 85.5333 253.286 85 255.793 85C258.326 85 260.3 85.4667 261.713 86.4C263.153 87.3333 263.873 88.6267 263.873 90.28C263.873 91.9333 263.326 93.2267 262.233 94.16C261.166 95.0667 259.94 95.52 258.553 95.52C257.166 95.52 255.913 95.2267 254.793 94.64C253.7 94.0267 252.82 93.16 252.153 92.04C250.713 92.7333 249.473 94.0933 248.433 96.12C247.393 98.1467 246.873 100.187 246.873 102.24C246.873 104.267 247.206 105.88 247.873 107.08C248.54 108.253 249.486 108.84 250.713 108.84C251.94 108.84 253.02 108.213 253.953 106.96C254.913 105.707 255.393 104.2 255.393 102.44C258.086 102.44 260.006 102.653 261.153 103.08C262.326 103.507 262.913 104.427 262.913 105.84C262.913 108.053 261.713 110.133 259.313 112.08C256.913 114.027 253.9 115 250.273 115C246.646 115 243.713 113.88 241.473 111.64C239.26 109.4 238.153 106.093 238.153 101.72ZM271.258 115.04C269.684 115.04 268.524 114.547 267.778 113.56C267.031 112.547 266.658 111.053 266.658 109.08C266.658 107.08 267.498 101.44 269.178 92.16L267.058 87.88C270.071 85.9333 272.818 84.96 275.298 84.96C276.871 84.96 277.844 85.7067 278.218 87.2C281.231 87.12 284.991 86.44 289.498 85.16C289.711 86.04 289.818 86.9067 289.818 87.76C289.818 89.92 289.098 91.5467 287.658 92.64C286.244 93.7333 284.418 94.28 282.178 94.28C280.658 94.28 279.164 93.96 277.698 93.32C277.484 94.52 277.111 96.48 276.578 99.2C277.564 99.3867 278.404 99.48 279.098 99.48C280.191 99.2667 281.391 98.96 282.698 98.56C282.831 99.0133 282.898 99.76 282.898 100.8C282.898 101.813 282.484 102.627 281.658 103.24C280.831 103.853 279.898 104.16 278.858 104.16C277.844 104.16 276.804 104.04 275.738 103.8C275.444 105.48 275.298 107.067 275.298 108.56H281.778C283.804 108.267 285.844 107.747 287.898 107C288.058 107.48 288.138 108.133 288.138 108.96C288.138 110.533 287.671 111.933 286.738 113.16C285.831 114.387 284.564 115 282.938 115C282.084 115 280.831 114.827 279.178 114.48C277.551 114.16 276.338 113.96 275.538 113.88C274.258 114.653 272.831 115.04 271.258 115.04Z" fill="white"/>
</svg>
